<svg id="Layer_1" data-name="Layer 1" xmlns="http://www.w3.org/2000/svg" viewBox="0 0 16.03 22.03"><defs><style>.cls-1{fill:#631fff;}</style></defs><path class="cls-1" d="M17,19V17h2v4a2,2,0,0,1-.59,1.4A1.84,1.84,0,0,1,17,23H7A1.84,1.84,0,0,1,5.6,22.4,1.94,1.94,0,0,1,5,21V17H7v2Zm-7-3.79-1.4,1.4L4,12l4.6-4.59L10,8.81,6.84,12Zm5.44,1.4L14,15.19,17.16,12,14,8.81l1.4-1.4L20,12ZM7,5V7H5V3A2,2,0,0,1,5.6,1.59,1.86,1.86,0,0,1,7,1L17,1a1.9,1.9,0,0,1,1.39.59A1.88,1.88,0,0,1,19,3V7H17V5Z" transform="translate(-3.98 -0.99)"/></svg>