<?xml version="1.0" encoding="UTF-8" standalone="no"?>
<svg
   xmlns:dc="http://purl.org/dc/elements/1.1/"
   xmlns:cc="http://creativecommons.org/ns#"
   xmlns:rdf="http://www.w3.org/1999/02/22-rdf-syntax-ns#"
   xmlns:svg="http://www.w3.org/2000/svg"
   xmlns="http://www.w3.org/2000/svg"
   xmlns:sodipodi="http://sodipodi.sourceforge.net/DTD/sodipodi-0.dtd"
   xmlns:inkscape="http://www.inkscape.org/namespaces/inkscape"
   width="210mm"
   height="297mm"
   viewBox="0 0 210 297"
   version="1.1"
   id="svg8"
   inkscape:version="1.0.1 (3bc2e813f5, 2020-09-07)"
   sodipodi:docname="slick.svg">
  <defs
     id="defs2" />
  <sodipodi:namedview
     id="base"
     pagecolor="#ffffff"
     bordercolor="#666666"
     borderopacity="1.0"
     inkscape:pageopacity="0.0"
     inkscape:pageshadow="2"
     inkscape:zoom="0.10587842"
     inkscape:cx="29046.872"
     inkscape:cy="4569.603"
     inkscape:document-units="mm"
     inkscape:current-layer="layer2"
     inkscape:document-rotation="0"
     showgrid="false"
     inkscape:window-width="1920"
     inkscape:window-height="1001"
     inkscape:window-x="-9"
     inkscape:window-y="-9"
     inkscape:window-maximized="1" />
  <metadata
     id="metadata5">
    <rdf:RDF>
      <cc:Work
         rdf:about="">
        <dc:format>image/svg+xml</dc:format>
        <dc:type
           rdf:resource="http://purl.org/dc/dcmitype/StillImage" />
        <dc:title />
      </cc:Work>
    </rdf:RDF>
  </metadata>
  <g
     inkscape:groupmode="layer"
     id="layer3"
     inkscape:label="background"
     style="display:inline">
    <path
       id="rect833-2"
       style="fill:#e0d3ff;fill-opacity:1;fill-rule:evenodd;stroke-width:5.29167"
       d="M 7163.36,652.15456 V 1526.1544 H 8515.3602 V 652.15456 Z" />
  </g>
  <g
     inkscape:label="blue"
     inkscape:groupmode="layer"
     id="layer1"
     style="display:inline" />
  <g
     inkscape:groupmode="layer"
     id="layer2"
     inkscape:label="dark blue"
     style="display:inline">
    <path
       id="path843-6-9"
       style="display:inline;fill:#bfa3ff;fill-opacity:1;fill-rule:evenodd;stroke-width:20"
       d="M 27052.115 2466.8359 L 27052.115 5770.1426 L 30011.383 5770.1426 C 29938.141 5611.1261 29538.249 5329.9855 28741.08 5123.6992 C 27186.595 4721.4399 27480.474 3174.0488 28638.562 3164.9512 C 29170.152 3160.7751 29470.083 2936.7104 29466.023 2525.0859 C 29457.5 2504.7652 29447.842 2485.3648 29437.135 2466.8359 L 27052.115 2466.8359 z "
       transform="scale(0.26458333)" />
    <path
       id="path843-6-9-6"
       style="display:inline;fill:#bfa3ff;fill-opacity:1;fill-rule:evenodd;stroke-width:20"
       d="m 30230.475,2474.8359 c 63.457,64.4521 149.923,131.4838 264.127,199.8223 1312.949,785.6615 1310.123,1050.3172 485.841,1422.9746 -390.204,176.4114 -389.646,1123.4011 -408.632,1680.5098 h 1612.228 V 2474.8359 Z"
       transform="scale(0.26458333)" />
    <path
       id="path1216"
       style="fill:#bfa3ff;fill-opacity:1;fill-rule:evenodd;stroke:none;stroke-width:4.71388"
       d="m 8065.2885,1353.0557 a 83.944019,83.944019 0 0 0 -5.5882,-16.4706 l -115.3591,109.349 a 83.944019,83.944019 0 0 0 16.1486,6.4608 z m 2.0246,21.7629 -85.1999,80.7613 a 83.944019,83.944019 0 0 0 59.0655,-23.01 83.944019,83.944019 0 0 0 26.1344,-57.7513 z m -16.6129,-53.3837 a 83.944019,83.944019 0 0 0 -6.3476,-7.5371 83.944019,83.944019 0 0 0 -3.6209,-3.5948 l -121.4715,115.1429 -1.8404,-1.9418 a 83.944019,83.944019 0 0 0 5.087,5.8919 83.944019,83.944019 0 0 0 7.1872,6.7409 z m -23.8663,-21.6396 a 83.944019,83.944019 0 0 0 -17.3131,-7.9347 l -107.1579,101.5751 a 83.944019,83.944019 0 0 0 6.9983,17.7123 z m -38.0887,-11.9237 a 83.944019,83.944019 0 0 0 -63.0645,22.8524 83.944019,83.944019 0 0 0 -26.1908,61.7527 z" />
    <path
       id="path1216-1"
       style="display:inline;fill:#bbff1f;fill-opacity:1;fill-rule:evenodd;stroke:none;stroke-width:2.04025"
       d="m 8459.0761,693.07565 a 36.332385,36.332385 0 0 0 -2.4186,-7.12876 l -49.9294,47.32809 a 36.332385,36.332385 0 0 0 6.9894,2.79636 z m 0.8763,9.41934 -36.8759,34.95487 a 36.332385,36.332385 0 0 0 25.5645,-9.95915 36.332385,36.332385 0 0 0 11.3114,-24.99572 z m -7.1903,-23.10534 a 36.332385,36.332385 0 0 0 -2.7474,-3.26219 36.332385,36.332385 0 0 0 -1.5672,-1.55592 l -52.5749,49.83581 -0.7965,-0.84045 a 36.332385,36.332385 0 0 0 2.2017,2.5501 36.332385,36.332385 0 0 0 3.1107,2.91758 z m -10.3298,-9.36602 a 36.332385,36.332385 0 0 0 -7.4934,-3.43425 l -46.3797,43.96339 a 36.332385,36.332385 0 0 0 3.029,7.6662 z m -16.4854,-5.16075 a 36.332385,36.332385 0 0 0 -27.2954,9.89087 36.332385,36.332385 0 0 0 -11.3358,26.72762 z" />
  </g>
  <g
     inkscape:groupmode="layer"
     id="layer4"
     inkscape:label="gore">
    <path
       id="path843-69-7"
       style="display:inline;fill:#631fff;fill-opacity:1;fill-rule:evenodd;stroke-width:5.29167"
       d="M 7163.3595,784.46839 V 1528.809 h 582.3924 c 82.3179,-24.1494 66.036,-280.4667 -316.8637,-211.7561 -236.909,51.3368 -222.1876,-137.2036 -206.7116,-179.2707 57.4265,-156.0976 16.3558,-287.78204 -58.8171,-353.31381 z" />
    <path
       id="path843-69-7-8"
       style="display:inline;fill:#631fff;fill-opacity:1;fill-rule:evenodd;stroke:none;stroke-width:5.29167"
       d="m 8355.0926,654.80912 c -10.7239,59.4883 -0.2098,151.44718 45.6554,288.00877 71.1317,211.79031 -328.1058,284.19941 -152.2478,583.33651 h 266.86 V 654.80912 Z" />
    <path
       id="path1216-9"
       style="display:inline;fill:#631fff;fill-opacity:1;fill-rule:evenodd;stroke:none;stroke-width:2.77838"
       d="m 7472.1927,787.5457 a 49.476954,49.476954 0 0 0 -10.1522,1.42316 l 50.6217,78.83151 a 49.476954,49.476954 0 0 0 5.5183,-8.63955 z m 12.8242,1.22275 37.3875,58.22207 a 49.476954,49.476954 0 0 0 -6.8233,-36.73352 49.476954,49.476954 0 0 0 -30.5642,-21.48855 z m -32.7394,3.74449 a 49.476954,49.476954 0 0 0 -5.0629,2.84602 49.476954,49.476954 0 0 0 -2.48,1.70101 l 53.304,83.00851 -1.327,0.85198 a 49.476954,49.476954 0 0 0 3.9714,-2.29715 49.476954,49.476954 0 0 0 4.6943,-3.4198 z m -15.1567,11.43801 a 49.476954,49.476954 0 0 0 -6.4999,9.15171 l 47.0228,73.22718 a 49.476954,49.476954 0 0 0 11.0264,-2.10299 z m -11.096,20.74257 a 49.476954,49.476954 0 0 0 6.2919,39.03176 49.476954,49.476954 0 0 0 32.8748,21.96156 z"
       inkscape:transform-center-x="102.03514"
       inkscape:transform-center-y="-126.81516" />
  </g>
  <g
     inkscape:groupmode="layer"
     id="layer5"
     inkscape:label="gore gore">
    <path
       id="path843-6-6"
       style="display:inline;fill:#21006e;fill-opacity:1;fill-rule:evenodd;stroke-width:5.29167"
       d="m 7159.6556,654.80032 v 871.87448 h 28.1059 c 62.3896,-45.0698 171.39,-240.1726 102.5311,-446.2803 -70.3705,-384.63469 114.4045,-369.77374 313.9607,-309.60021 89.9694,27.12902 221.0474,-23.17997 281.4521,-115.99397 z" />
    <path
       id="path843-6-6-2"
       style="display:inline;fill:#21006e;fill-opacity:1;fill-rule:evenodd;stroke-width:5.29167"
       d="m 8515.3602,656.39507 c -57.0431,66.47625 -105.07,201.73685 -43.5208,397.25893 32.157,210.6248 -47.014,335.9342 -122.9537,345.2001 -113.6965,13.8728 -309.0304,-40.1849 -315.9445,129.9373 h 482.419 z" />
  </g>
</svg>
