<?xml version="1.0" standalone="no"?>
<!DOCTYPE svg PUBLIC "-//W3C//DTD SVG 20010904//EN"
 "http://www.w3.org/TR/2001/REC-SVG-20010904/DTD/svg10.dtd">
<svg version="1.0" xmlns="http://www.w3.org/2000/svg"
 width="1113.000000pt" height="394.000000pt" viewBox="0 0 1113.000000 394.000000"
 preserveAspectRatio="xMidYMid meet">

<g transform="translate(0.000000,394.000000) scale(0.100000,-0.100000)"
fill="#631fff" stroke="none">
<path d="M662 3929 c-90 -10 -222 -55 -300 -100 -31 -19 -98 -74 -147 -124
-73 -73 -99 -106 -133 -175 -82 -167 -76 -63 -80 -1362 l-2 -1158 1278 0
c1138 0 1284 2 1333 16 159 46 259 179 247 328 -11 127 -97 231 -233 281 -45
17 -101 19 -595 25 -528 6 -548 7 -630 29 -98 27 -176 64 -275 131 -185 127
-302 257 -385 432 -64 134 -75 189 -75 378 0 141 3 177 23 249 97 353 357 597
717 672 85 18 158 19 1318 19 730 0 1227 4 1227 9 0 16 -75 104 -137 161 -115
106 -261 170 -428 190 -110 12 -2615 12 -2723 -1z"/>
<path d="M5925 3196 c-37 -17 -80 -62 -94 -99 -8 -19 -11 -296 -11 -858 0
-902 -2 -866 56 -921 82 -76 214 -58 269 36 l25 43 0 843 0 843 -25 43 c-42
72 -143 104 -220 70z"/>
<path d="M8415 3196 c-37 -17 -80 -62 -94 -99 -8 -19 -11 -296 -11 -858 0
-902 -2 -866 56 -921 52 -48 123 -61 187 -34 18 7 126 107 244 227 l212 214
213 -212 c117 -116 227 -218 245 -227 128 -64 275 55 248 201 -6 33 -38 69
-226 258 -120 121 -219 225 -219 230 0 5 99 109 219 230 188 189 220 225 226
258 10 54 0 104 -30 143 -36 47 -67 66 -119 71 -90 11 -92 9 -513 -410 l-393
-391 0 603 0 604 -25 43 c-42 72 -143 104 -220 70z"/>
<path d="M6485 3143 c-78 -41 -115 -100 -115 -183 0 -225 323 -270 386 -54 18
64 12 108 -26 167 -49 77 -168 111 -245 70z"/>
<path d="M1795 2926 c-162 -40 -265 -161 -265 -311 0 -141 90 -254 245 -308
18 -6 208 -13 475 -17 439 -6 446 -7 543 -33 107 -29 254 -94 344 -154 78 -51
205 -174 259 -249 58 -81 119 -211 145 -309 28 -104 31 -307 6 -408 -86 -348
-379 -633 -745 -726 -153 -39 -213 -41 -1475 -41 l-1228 0 30 -43 c75 -109
203 -211 334 -266 153 -63 113 -62 1608 -59 l1354 3 78 22 c256 73 443 252
529 508 l23 70 3 1168 2 1167 -1107 -1 c-845 0 -1120 -4 -1158 -13z"/>
<path d="M4739 2657 c-120 -41 -208 -120 -262 -235 -30 -63 -32 -74 -32 -182
0 -109 2 -119 32 -183 44 -93 119 -169 212 -215 l75 -37 245 -5 c168 -3 253
-9 267 -17 57 -33 46 -130 -16 -152 -22 -7 -142 -11 -362 -11 -367 0 -375 -1
-425 -67 -20 -26 -28 -50 -31 -94 -6 -77 27 -137 92 -168 43 -21 53 -22 423
-19 365 3 380 4 433 25 213 87 328 323 262 540 -41 135 -157 252 -289 293 -57
18 -93 20 -290 20 l-225 0 -29 29 c-31 31 -35 53 -19 96 19 50 52 55 366 55
244 0 291 2 321 16 87 42 120 161 69 248 -17 30 -40 51 -69 65 -41 20 -59 21
-363 21 -305 -1 -322 -2 -385 -23z"/>
<path d="M6495 2666 c-37 -17 -80 -62 -94 -99 -7 -19 -11 -218 -11 -592 0
-374 4 -573 11 -592 50 -134 242 -151 314 -29 l25 43 0 578 0 578 -25 43 c-42
72 -143 104 -220 70z"/>
<path d="M7465 2665 c-265 -58 -478 -266 -540 -528 -19 -81 -19 -245 1 -327
86 -368 466 -606 837 -524 159 35 359 164 387 250 27 81 -9 183 -78 218 -77
39 -145 27 -223 -39 -106 -90 -257 -115 -375 -61 -77 35 -146 103 -180 180
-40 87 -40 195 -1 281 70 150 218 230 378 204 74 -12 122 -35 183 -88 26 -22
65 -45 87 -51 103 -28 207 44 217 149 7 74 -11 113 -81 177 -154 139 -405 204
-612 159z"/>
</g>
</svg>
