<svg id="Layer_1" data-name="Layer 1" xmlns="http://www.w3.org/2000/svg" viewBox="0 0 201.41 201.41"><defs><style>.cls-1{fill:#fff;}</style></defs><path class="cls-1" d="M706.45,433.51c9.65,0,17.64-7.45,17.64-16.45s-8-16.44-17.64-16.44H661.39s-11.86-1.51-17.13-4.46c-14.76-8.25-29.71-22.73-29.71-45.17,0-27.24,19.08-49,48.28-49L732.9,302c17.61,0,32.66.05,45.49.16a37.43,37.43,0,0,0-32.25-18.41H619.65a37.46,37.46,0,0,0-37.46,37.46V433.51Z" transform="translate(-582.19 -283.7)"/><path class="cls-1" d="M732.9,334.84H675.58c-9.65,0-17.64,7.45-17.64,16.44s8,16.45,17.64,16.45h30.87c29.21,0,52.9,22.1,52.9,49.33s-23.69,49.34-52.9,49.34H587.22a37.42,37.42,0,0,0,32.43,18.71H746.14a37.46,37.46,0,0,0,37.46-37.46V334.56C770.32,334.74,753.64,334.84,732.9,334.84Z" transform="translate(-582.19 -283.7)"/></svg>