<svg id="Layer_1" data-name="Layer 1" xmlns="http://www.w3.org/2000/svg" viewBox="0 0 305.77 401.32"><defs><style>.cls-1{fill:#631fff;}.cls-2{opacity:0.2;}</style></defs><g id="Artwork_18" data-name="Artwork 18"><path id="Path_649" data-name="Path 649" class="cls-1" d="M660.09,498.1v51.13a8.54,8.54,0,0,1-8.52,8.52H600.44a8.54,8.54,0,0,1-8.52-8.52V498.1a8.54,8.54,0,0,1,8.52-8.52h51.13A8.54,8.54,0,0,1,660.09,498.1ZM727.4,370.28c0,40.48-27.49,56-47.72,67.31-12.57,7.24-20.45,21.94-20.45,28.13h0c0,4.69-3.63,10.23-8.52,10.23H599.58c-4.69,0-7.66-7.24-7.66-11.93v-9.59c0-25.78,25.56-47.94,44.31-56.46,16.4-7.46,23.22-14.48,23.22-28.12,0-11.93-15.56-22.58-32.8-22.58-9.59,0-18.33,3-23,6.17-5.11,3.63-10.23,8.74-22.8,24.5a8.84,8.84,0,0,1-6.6,3.41,9.82,9.82,0,0,1-5.33-1.7L534,353a8.39,8.39,0,0,1-2.13-11.29c23-38.13,55.39-56.66,98.85-56.66,45.59,0,96.72,36.43,96.72,85.21Z" transform="translate(-530.54 -183.75)"/></g><g id="Artwork_18-2" data-name="Artwork 18-2" class="cls-2"><path id="Path_652" data-name="Path 652" class="cls-1" d="M737.2,497.28v75.25a12.57,12.57,0,0,1-12.54,12.54H649.41a12.57,12.57,0,0,1-12.54-12.54V497.28a12.57,12.57,0,0,1,12.54-12.54h75.25A12.57,12.57,0,0,1,737.2,497.28Zm99.07-188.12c0,59.58-40.46,82.45-70.23,99.07-18.5,10.65-30.1,32.28-30.1,41.4h0c0,6.9-5.34,15.05-12.55,15.05H648.15c-6.9,0-11.28-10.66-11.28-17.56V433c0-37.95,37.62-70.55,65.21-83.09,24.14-11,34.18-21.31,34.18-41.4,0-17.56-22.9-33.23-48.28-33.23-14.11,0-27,4.39-33.85,9.09-7.53,5.33-15,12.86-33.55,36.06a13,13,0,0,1-9.72,5,14.47,14.47,0,0,1-7.84-2.51l-51.41-39.18a12.35,12.35,0,0,1-3.13-16.62C582.33,211,630,183.75,694,183.75c67.1,0,142.35,53.62,142.35,125.41Z" transform="translate(-530.54 -183.75)"/></g></svg>