<svg id="Layer_1" data-name="Layer 1" xmlns="http://www.w3.org/2000/svg" viewBox="0 0 2827.32 2564.47"><defs><style>.cls-1{fill:#fff;}.cls-2{opacity:0.3;}.cls-3{fill:#000072;}.cls-4{fill:#631fff;}.cls-5{opacity:0.35;}.cls-6{opacity:0.15;}.cls-7{opacity:0.4;}.cls-8{opacity:0.25;}.cls-9{fill:#4d1c54;}.cls-10{opacity:0.2;}.cls-11{fill:#22a7f0;}.cls-12{opacity:0.7;}.cls-13{opacity:0.5;}.cls-14{fill:#686779;}.cls-15{fill:#343c47;}</style></defs><path class="cls-1" d="M1893.89,2252.56s-185.31,3.39-212.3-60.55c-39.68-94,9.58-392,65.53-461.94,54.34-67.9,263.37-42,263.37-42Z" transform="translate(-579 -718.89)"/><g class="cls-2"><path class="cls-3" d="M1681.59,2192c27,63.94,212.31,60.56,212.31,60.56l17.47-123.11s-185.31,3.38-212.31-60.56c-15.06-35.68-17.59-101.08-11.74-172.2C1665.26,2006.45,1657.91,2135.9,1681.59,2192Z" transform="translate(-579 -718.89)"/></g><path class="cls-3" d="M1886.29,2268.78c-40.13,0-191.69-4.43-219.58-70.49C1624,2097.2,1675.24,1794,1734.51,1720c58.29-72.84,255.65-50.72,278-48l17.38,2.15L1907.1,2268.48l-12.91.23C1892.55,2268.74,1889.85,2268.78,1886.29,2268.78Zm7.6-16.22h0Zm29.82-553.27c-63.88,0-138,8.38-164,40.87-52.39,65.46-101,356.25-63.26,445.57,15.53,36.78,116.19,50.22,184.25,50.74l110.35-534.22C1972.61,1700.6,1949,1699.29,1923.71,1699.29Z" transform="translate(-579 -718.89)"/><path class="cls-1" d="M1806.32,1988.3,1726,1975.13a28.91,28.91,0,0,0-33.13,23.17c-7.54,40.31-16,112.17,15.5,127.73,44.33,21.89,90.45,14.76,102.37,2.82,17.63-17.66,20-77.86,19.83-112.18A28.91,28.91,0,0,0,1806.32,1988.3Z" transform="translate(-579 -718.89)"/><g class="cls-2"><path class="cls-3" d="M1708.4,2126c44.33,21.88,90.41,14.76,102.36,2.8,11.28-11.29,16.31-40,18.43-68.22a33.13,33.13,0,0,1-5.78,8.23c-11.94,11.93-58,19-102.36-2.84-21.18-10.46-24.29-46.42-21.76-81.12a28.69,28.69,0,0,0-6.42,13.42C1685.33,2038.62,1676.89,2110.48,1708.4,2126Z" transform="translate(-579 -718.89)"/></g><path class="cls-3" d="M1768.58,2156.39a154.44,154.44,0,0,1-67.35-15.88c-31.2-15.41-39.36-64.26-24.24-145.18a45.32,45.32,0,0,1,51.63-36.14l80.31,13.17a44.94,44.94,0,0,1,37.81,44.23c.45,98.63-18.37,117.48-24.55,123.67C1812.14,2150.32,1792.19,2156.39,1768.58,2156.39Zm-47.25-165.49a12.82,12.82,0,0,0-12.57,10.36c-12.64,67.62-5.7,104.11,6.78,110.28,39,19.27,77.54,11.92,83.79,5.88,7.14-7.15,15.39-37.81,15.1-100.68a12.72,12.72,0,0,0-10.72-12.49l-80.32-13.18A13.11,13.11,0,0,0,1721.33,1990.9Z" transform="translate(-579 -718.89)"/><path class="cls-3" d="M1787.84,1721.73a165.39,165.39,0,0,1,38.76-11.59,258.82,258.82,0,0,1,40.35-3.54c13.39-.27,26.71.24,39.32.12a121.07,121.07,0,0,0,17.61-1.23c5.27-.77,9.32-2.65,10.27-4a16.83,16.83,0,1,1,22.62,24l-4,2.43c-9.93,6-19.2,6.67-26.84,6.8a151.34,151.34,0,0,1-21.47-1.82c-13.42-2-26-4.48-38.67-6.21A243,243,0,0,0,1828,1724a154.45,154.45,0,0,0-37.49,5.09h0a3.94,3.94,0,0,1-2.6-7.41Z" transform="translate(-579 -718.89)"/><path class="cls-1" d="M2589.88,1865.4s82.64,187.15,213.74,305.27c73.48,66.21,85.55,134.46,44.43,180.27s-131.83,81.38-219.43,17.83-137.52-369.29-137.52-369.29" transform="translate(-579 -718.89)"/><path class="cls-1" d="M2848.07,2351c-22.86,25.44-61.07,47.78-105.5,51.66-35.5,3.07-75-5.62-113.93-33.85-87.65-63.53-137.53-369.27-137.53-369.27l38.13-51.78,60.62-82.31s82.68,187.16,213.74,305.25C2877.11,2236.89,2889.18,2305.15,2848.07,2351Z" transform="translate(-579 -718.89)"/><g class="cls-2"><path class="cls-3" d="M2763,2383.91a145.83,145.83,0,0,1-20.44,18.7c-35.5,3.07-75-5.62-113.93-33.85-87.65-63.53-137.53-369.27-137.53-369.27l38.13-51.78c7,13.27,50.71-22.76,60.5-6,37.15,63.57,58.37,198.42,128.84,261.89C2792.09,2269.85,2804.12,2338.11,2763,2383.91Z" transform="translate(-579 -718.89)"/></g><path class="cls-3" d="M2728.65,2418.41c-34.27,0-71.57-10.46-108.84-37.5-91.56-66.42-141.43-366.28-143.51-379a15,15,0,1,1,29.61-4.83c13.61,83.35,63.78,310.43,131.51,359.56,82.36,59.76,164.42,23.35,199.47-15.69,37.31-41.58,21.12-101.06-43.31-159.12-132-118.9-214-302.59-217.42-310.35a15,15,0,0,1,27.44-12.12c.81,1.84,83,185.66,210.06,300.19,77.2,69.55,94.65,146.74,45.55,201.43C2832.92,2390.25,2784.87,2418.4,2728.65,2418.41Z" transform="translate(-579 -718.89)"/><path class="cls-3" d="M2735.78,2718.05a17.65,17.65,0,0,1-5.12-.79c-5.16-1.59-8.28-4.13-9.94-7.78l-485.9-127.26a16.15,16.15,0,0,1-11.53-19.72l129.53-494.57a16.16,16.16,0,0,1,21.88-10.8L2591.21,2148c.38.16.76.33,1.13.52,2.68,1.38,66.35,34.5,122,102.08,51.85,62.9,105.91,168.38,69,313.69-20.21,79.62-27.74,113.11-30.52,127.17a16.18,16.18,0,0,1,.1,11.33C2748.42,2715.34,2741.18,2718.05,2735.78,2718.05Zm-477.14-163L2723,2676.67c.29-1.3.58-2.64.88-4,5.18-23.72,14.69-62.85,28.25-116.31,26.84-105.74,6-201.39-61.92-284.31-49-59.8-106.29-91.39-112.13-94.52l-198.69-83.4Z" transform="translate(-579 -718.89)"/><path class="cls-1" d="M2585,2162.9s251,128.82,182.8,397.43c-45.75,180.28-29.94,136.93-29.94,136.93l-498.9-130.67L2368.45,2072Z" transform="translate(-579 -718.89)"/><path class="cls-3" d="M2735.78,2718.05a17.65,17.65,0,0,1-5.12-.79c-5.16-1.59-8.28-4.13-9.94-7.78l-485.9-127.26a16.15,16.15,0,0,1-11.53-19.72l129.53-494.57a16.16,16.16,0,0,1,21.88-10.8L2591.21,2148c.38.16.76.33,1.13.52,2.68,1.38,66.35,34.5,122,102.08,51.85,62.9,105.91,168.38,69,313.69-20.21,79.62-27.74,113.11-30.52,127.17a16.18,16.18,0,0,1,.1,11.33C2748.42,2715.34,2741.18,2718.05,2735.78,2718.05Zm-477.14-163L2723,2676.67c.29-1.3.58-2.64.88-4,5.18-23.72,14.69-62.85,28.25-116.31,26.84-105.74,6-201.39-61.92-284.31-49-59.8-106.29-91.39-112.13-94.52l-198.69-83.4Z" transform="translate(-579 -718.89)"/><path class="cls-4" d="M1750.78,3037.84l-76.68-10a95.1,95.1,0,0,1-76.53-60.45h0a570.89,570.89,0,0,1-28.12-305.5h0a95.09,95.09,0,0,1,64.21-73.41l73.56-23.86Z" transform="translate(-579 -718.89)"/><g class="cls-2"><path class="cls-4" d="M1707.22,2564.59l-12.27,4,35.83,389.27-76.68-10a95.1,95.1,0,0,1-76.53-60.45c-3.16-8.29-6-16.66-8.8-25.07a570.68,570.68,0,0,0,28.8,105.07,95.1,95.1,0,0,0,76.53,60.45l76.68,10Z" transform="translate(-579 -718.89)"/></g><g class="cls-5"><path class="cls-4" d="M1627.57,2992.36a570.89,570.89,0,0,1-28.12-305.5h0a95.09,95.09,0,0,1,64.21-73.41l46.66-15.13-3.1-33.73-73.56,23.86a95.09,95.09,0,0,0-64.21,73.41h0a570.89,570.89,0,0,0,28.12,305.5,95.12,95.12,0,0,0,44.34,50.14A95.1,95.1,0,0,1,1627.57,2992.36Z" transform="translate(-579 -718.89)"/></g><path class="cls-4" d="M1502.7,2396.94c39.67,19.71,226.81,110.83,232.91,223.8l181.66-100a163.19,163.19,0,0,0-4.19-16.9v0c-25.37-83-129.22-194-403.49-116.92-2,.56-4.09,1.15-6.16,1.74A4.48,4.48,0,0,0,1502.7,2396.94Z" transform="translate(-579 -718.89)"/><g class="cls-6"><path class="cls-4" d="M1502.7,2396.94c39.67,19.71,226.81,110.83,232.91,223.8l181.66-100a163.19,163.19,0,0,0-4.19-16.9l3.05,7.73c-14.26-5.23-36.9-10.26-57.81-6.35-76.85,14.37-117.65,16.17-158.69-20.82-51.45-46.38-144.77-92.27-190-97.51-2,.56-4.09,1.15-6.16,1.74A4.48,4.48,0,0,0,1502.7,2396.94Z" transform="translate(-579 -718.89)"/></g><g class="cls-7"><path class="cls-4" d="M1516.25,2403.71c-9.85-5.22-5.69-2.86-13.56-6.77a4.48,4.48,0,0,1,.75-8.31c298.27-86.1,397.88,48.06,413.82,132.11l-19.67,10.83C1867.55,2455.15,1745.77,2352.13,1516.25,2403.71Z" transform="translate(-579 -718.89)"/></g><path class="cls-4" d="M1735.6,2636.76a16,16,0,0,1-16-15.15c-2.06-38.07-33.66-115.9-222.17-209.39l-1.9-.94a20.5,20.5,0,0,1,3.44-38c144.57-41.72,258.76-37.75,339.36,11.79,70.94,43.61,89.8,107.34,94.62,132.72a16,16,0,1,1-31.45,6c-4-21.2-19.86-74.5-79.93-111.42-66.39-40.81-164.53-46.25-285-16,171.86,90.52,212.18,171.06,215,223.63a16,16,0,0,1-15.12,16.84C1736.19,2636.75,1735.89,2636.76,1735.6,2636.76Z" transform="translate(-579 -718.89)"/><path class="cls-4" d="M1966.28,3053.26c-.33,85.55-73.34,240.38-382.31,210.19a4.49,4.49,0,0,1-2.27-8c35.42-26.62,202.32-155.43,187.7-267.61" transform="translate(-579 -718.89)"/><path class="cls-4" d="M1584,3263.47a4.5,4.5,0,0,1-2.25-8.06c18.13-13.64,70.76-54.09,115.83-105.39,42.6-48.46,78.42-106.65,72-161,0-.39-.11-.81-.14-1.2l1.19.39,195.69,65.06c-.1,24-5.91,53.49-21.1,82.79C1906.37,3211.15,1806.24,3285.16,1584,3263.47Z" transform="translate(-579 -718.89)"/><g class="cls-8"><path class="cls-4" d="M1697.55,3150c42.6-48.46,78.42-106.65,72-161,.35-.26.7-.55,1-.81l195.69,65.06c-.1,24-5.91,53.49-21.1,82.79C1886.27,3162.29,1805.53,3172.83,1697.55,3150Z" transform="translate(-579 -718.89)"/></g><path class="cls-4" d="M1660.11,3283.36q-36.94,0-77.7-4a20.49,20.49,0,0,1-10.32-36.76c45.8-34.42,194.26-154.38,181.44-252.76a16,16,0,0,1,31.74-4.13c13,100-100.63,208.07-170.37,264.14,122.36,7.47,217.1-16,275.16-68.44,55.61-50.24,60.15-110.85,60.22-128.23a16,16,0,0,1,16-15.94h.06a16,16,0,0,1,15.94,16.07c-.1,26.53-7.2,94.43-70.76,151.85C1854,3257.17,1769.61,3283.36,1660.11,3283.36Z" transform="translate(-579 -718.89)"/><path class="cls-4" d="M3405,2646.93S3212.87,3054.82,2581.92,3157c-537.45,87-831.12-119.19-831.12-119.19a684.1,684.1,0,0,1-43.61-473.23s62.26-63.5,191.93-128.83c51-25.73,112.46-51.73,184.68-74.26,112.87-35.21,252.1-61.89,418.82-65.77,9.4-.2,18.76-.37,28.05-.37,39.49-.28,77.54,1,114.1,3.49C3180.9,2335.65,3405,2646.93,3405,2646.93Z" transform="translate(-579 -718.89)"/><g class="cls-2"><path class="cls-4" d="M2474.23,3020.1A223.73,223.73,0,0,1,2252.86,2896c-46.16-5.09-81.27-16.76-117.41-54.29-21.17-22-57.49-74.12-73.17-192.91-16.77-127-110.72-162-162.63-221.67,52.87-26.79,106.08-48.56,184.91-74.19,89.32-29,195.73-50.61,318.87-60.87-28.88,36.11-52.75,72-54.65,73.43l-.72.6c72.29,76.7,55.77,160.35,28,221.37a223.68,223.68,0,0,1,57.11-12.88c123-11.35,232,79.2,243.3,202.27S2597.26,3008.79,2474.23,3020.1Z" transform="translate(-579 -718.89)"/></g><g class="cls-2"><path class="cls-4" d="M1693.68,2828.87a683.94,683.94,0,0,0,57.08,179S2044.48,3214,2581.93,3127c227.42-36.84,397.79-113.34,522.73-196.16-43.87-93.4-108.2-510.66-160-504.9-38.56,4.28,33.6,210.62-22.39,423.89-26.44,100.73-118.88,191.57-202.09,208.77-304.88,63-539.31,22.52-677.89-26.09-111.35-39.06-193.93-135-214.33-251.27-.11-.62-.22-1.23-.32-1.85a684.18,684.18,0,0,1,13.52-294.3s21.23-21.64,64.67-52.69c-134.21,66.51-198.59,132.19-198.59,132.19a684.14,684.14,0,0,0-23.29,162.23A685,685,0,0,0,1693.68,2828.87Z" transform="translate(-579 -718.89)"/></g><path class="cls-4" d="M2980.53,3032.23a1650.14,1650.14,0,0,0-63.21-686.63c248.39,70.82,393.8,198.55,454.37,262.57a67.31,67.31,0,0,1,7.71,82.89C3331.58,2765,3211.92,2917.21,2980.53,3032.23Z" transform="translate(-579 -718.89)"/><g class="cls-5"><path class="cls-4" d="M3371.69,2608.17c-60.57-64-206-191.75-454.37-262.57q6.73,21.6,12.86,43.35c231.42,72.12,368.25,192.64,426.51,254.22a67.37,67.37,0,0,1,17.86,55.27q2.53-3.81,4.85-7.38A67.31,67.31,0,0,0,3371.69,2608.17Z" transform="translate(-579 -718.89)"/></g><g class="cls-2"><path class="cls-4" d="M2984.48,2995.19c232.27-119.27,348.26-275,390.81-343.4l.18-.22C3329,2704,3263.31,2764.5,3182,2821.67c-48.78,34.3-116.21,2.82-122.26-56.5-14.66-143.72-58.47-259.57-123.93-414.11-6.1-1.89-12.29-3.7-18.52-5.46A1649.14,1649.14,0,0,1,2984.48,2995.19Z" transform="translate(-579 -718.89)"/></g><path class="cls-4" d="M2980.53,3048.24a16,16,0,0,1-15.89-17.9c27.44-230,6.38-458.79-62.59-680a16,16,0,0,1,19.66-20.15c249.33,71.09,396.41,198,461.89,267.26a82.84,82.84,0,0,1,9.39,102.05c-51.74,80.07-173.19,231.64-405.34,347.05A16.1,16.1,0,0,1,2980.53,3048.24Zm-39.28-678.8a1653.74,1653.74,0,0,1,58.45,635c208.21-110,318.43-248,366.4-322.27a50.88,50.88,0,0,0-5.77-62.69C3299.62,2555.19,3166.05,2439.61,2941.25,2369.44Z" transform="translate(-579 -718.89)"/><path class="cls-4" d="M2324.53,3194.24c-155,0-278-23.9-364.18-48.82-141.54-40.94-215.7-92.33-218.79-94.49a16.22,16.22,0,0,1-5.24-6.2,699.93,699.93,0,0,1-44.58-484.31,16.07,16.07,0,0,1,4-7c2.64-2.7,66.17-66.75,197.86-132.83,120.83-60.62,324.5-134.27,608.61-140.81,149-3.41,290.09,13.54,419.47,50.46a16,16,0,0,1,10.89,10.62c70.3,225.45,91.79,458.62,63.84,693.07a16,16,0,0,1-8.78,12.71c-120.47,59.91-256.13,102.37-403.22,126.18C2490,3188.08,2403.16,3194.24,2324.53,3194.24ZM1763.31,3027c15.83,10.23,87,53.53,207.58,88.19,126.44,36.36,334.64,70.39,608.44,26.06,140.74-22.79,270.66-63,386.3-119.42,25.59-224.27,5.07-447.27-61-663.13-124-34.41-259.06-50.2-401.62-46.9-277.29,6.39-475.78,77.84-593.46,136.66-112.21,56.08-174.3,111.64-188,124.58a667.93,667.93,0,0,0,41.78,454Z" transform="translate(-579 -718.89)"/><path class="cls-4" d="M1750.8,3053.85a15,15,0,0,1-2.1-.14l-76.67-10a111,111,0,0,1-89.42-70.63,586.8,586.8,0,0,1-28.9-314.06,110.94,110.94,0,0,1,75-85.76l73.56-23.86a16,16,0,0,1,9.88,30.45l-73.56,23.86a79,79,0,0,0-53.41,61.05,554.83,554.83,0,0,0,27.34,296.93,79,79,0,0,0,63.65,50.28l76.68,10a16,16,0,0,1-2.06,31.87Z" transform="translate(-579 -718.89)"/><path class="cls-4" d="M595,2905.61c347.17-32,475.19,193.64,695.35,173.38s244.07-259.85,244.07-259.85-67.24-231.2-287.4-210.94S942.18,2873.65,595,2905.61Z" transform="translate(-579 -718.89)"/><path class="cls-4" d="M595,2905.61c347.17-32,475.19,193.64,695.35,173.38s244.07-259.85,244.07-259.85-67.24-231.2-287.4-210.94S942.18,2873.65,595,2905.61Z" transform="translate(-579 -718.89)"/><g class="cls-7"><path class="cls-4" d="M752.74,2908.93c237.34-72.74,326.6-253.45,514.29-270.73,116.51-10.72,190.19,49,233.75,107.58-39.3-65.78-117-150.16-253.75-137.58-220.16,20.27-304.85,265.45-652,297.41C653.28,2900.24,705.35,2902.16,752.74,2908.93Z" transform="translate(-579 -718.89)"/></g><path class="cls-4" d="M944.3,2872.25c202.12-18.61,279.48,143.56,407.66,131.76s139.25-182.11,139.25-182.11-42-165.42-170.15-153.62S1146.42,2853.64,944.3,2872.25Z" transform="translate(-579 -718.89)"/><path class="cls-4" d="M1262.6,3096.27c-89.15,0-165-37.55-244.93-77.08-108.95-53.92-232.44-115-421.2-97.64a16,16,0,0,1-17.4-14.48c0-.49-.07-1-.07-1.48a16,16,0,0,1,14.54-15.92c188.76-17.37,299-100,396.29-172.89,79-59.2,153.62-115.11,255.73-124.51,95.62-8.79,178.69,27.09,240.21,103.79,45.8,57.09,63.3,116.13,64,118.61a15.7,15.7,0,0,1,.56,6.06c-.25,2.57-6.69,63.8-41.29,128.3-46.49,86.65-121.61,137.1-217.23,145.9Q1277,3096.3,1262.6,3096.27ZM745.66,2891.74c116.67,14.86,205.31,58.73,286.21,98.76,88,43.53,163.93,81.13,257,72.55,85.27-7.85,149.69-51,191.47-128.25,27.66-51.15,36-101.37,37.74-114.16-4-12.22-21.41-60.1-57.95-105.35-55.18-68.33-126.4-99-211.66-91.15-93.1,8.57-160.93,59.4-239.47,118.26C936.8,2796.52,857.66,2855.82,745.66,2891.74Z" transform="translate(-579 -718.89)"/><path class="cls-4" d="M1761.71,2888.67c-106,9.73-218.18-64.6-218.18-64.6s.37-.36,1.06-1c10.72-10.07,102.06-93.16,201.63-102.37,95.55-8.82,178.69,53.21,193.32,64.84,1.5,1.2,2.28,1.86,2.28,1.86S1867,2879,1761.71,2888.67Z" transform="translate(-579 -718.89)"/><g class="cls-7"><path class="cls-4" d="M1543.55,2824.07s4.76,3.17,13.24,8.08c43.91-32.67,115.59-76.55,191.36-83.57,74.94-6.91,143.27,23.7,185,48.45,5.64-6,8.64-9.62,8.64-9.62s-.77-.66-2.26-1.85c-14.65-11.63-97.79-73.68-193.33-64.84-99.56,9.22-190.93,92.31-201.65,102.37C1543.91,2823.71,1543.55,2824.07,1543.55,2824.07Z" transform="translate(-579 -718.89)"/></g><g class="cls-8"><path class="cls-4" d="M1761.71,2888.67c-106,9.73-218.18-64.6-218.18-64.6s.37-.36,1.06-1l395-37.53c1.5,1.2,2.28,1.86,2.28,1.86S1867,2879,1761.71,2888.67Z" transform="translate(-579 -718.89)"/></g><path class="cls-4" d="M1742,2905.56c-103.26,0-202.87-65.19-207.34-68.15a16,16,0,0,1-2.28-24.83c4.11-4,102-97.6,212.36-107.79,110.78-10.15,203.5,67.11,207.39,70.41a16,16,0,0,1,2.06,22.34c-3.23,3.95-80.29,96.91-191,107.08C1756.12,2905.26,1749.06,2905.56,1742,2905.56Zm-171.4-84c35,19.55,114.82,58,189.61,51.16,74.58-6.84,133.93-58.91,157.82-83.14-27.9-19.46-95.79-59.8-170.34-52.93C1672.92,2743.57,1601.5,2796,1570.62,2821.58Z" transform="translate(-579 -718.89)"/><circle class="cls-4" cx="2428.81" cy="2738.53" r="197.05" transform="translate(-1804.06 1800.63) rotate(-45)"/><g class="cls-2"><path class="cls-4" d="M2446.85,2934.75c-108.34,10-204.31-69.76-214.28-178.14a196.26,196.26,0,0,1,15.36-96.28,198.57,198.57,0,0,0-.91,44.42c10,108.38,105.9,188.15,214.29,178.18a196.91,196.91,0,0,0,162.8-118.09A197.09,197.09,0,0,1,2446.85,2934.75Z" transform="translate(-579 -718.89)"/></g><path class="cls-4" d="M2428.43,2951.61a213.07,213.07,0,0,1-19.15-425.24C2526.21,2515.67,2630.2,2602,2641,2719s-75.65,220.91-192.64,231.69C2441.68,2951.31,2435,2951.61,2428.43,2951.61Zm.51-394.13q-8.3,0-16.73.77a181,181,0,0,0,33.19,360.57c99.41-9.15,172.84-97.47,163.69-196.88C2600.46,2628.15,2521.34,2557.48,2428.94,2557.48Z" transform="translate(-579 -718.89)"/><circle class="cls-4" cx="2430.93" cy="2735.98" r="125.36" transform="translate(-1801.63 1801.38) rotate(-45)"/><g class="cls-2"><path class="cls-4" d="M2442.41,2860.84a125.35,125.35,0,0,1-136.31-113.36,124,124,0,0,1,3.53-43.22c.07,1.39.18,2.77.3,4.2a125.38,125.38,0,0,0,246.14,20.26A125.38,125.38,0,0,1,2442.41,2860.84Z" transform="translate(-579 -718.89)"/></g><g class="cls-5"><path class="cls-4" d="M2550.74,2777.76c-.12-2.15-.23-4.3-.44-6.47a125.36,125.36,0,0,0-244.46-26,125.37,125.37,0,1,1,244.9,32.5Z" transform="translate(-579 -718.89)"/></g><path class="cls-4" d="M2430.67,2877.36a141.39,141.39,0,0,1-140.52-128.42c-7.14-77.62,50.2-146.58,127.82-153.73A141.38,141.38,0,0,1,2571.7,2723c7.14,77.62-50.19,146.58-127.82,153.73h0Q2437.25,2877.36,2430.67,2877.36Zm10.28-32.48,1.47,15.94-1.47-15.94a109.34,109.34,0,1,0-79.94-24.8A109.48,109.48,0,0,0,2441,2844.88Z" transform="translate(-579 -718.89)"/><path class="cls-4" d="M2452.65,2273.55c.11-.68.2-1.35.26-2a1.67,1.67,0,0,1,0,.3C2452.82,2272.39,2452.76,2273,2452.65,2273.55Z" transform="translate(-579 -718.89)"/><g class="cls-2"><path class="cls-4" d="M1280.36,3049c207.08-19.06,240.53-232.12,243.77-257.39-10.39-24.32-29.25-61.17-59.25-95.58l-7.43,2.42s106.85,371.26-535.09,232.8C1052.33,2987.09,1150.27,3061,1280.36,3049Z" transform="translate(-579 -718.89)"/></g><path class="cls-1" d="M2581.66,2248.81c-.52.68-1.09,1.37-1.61,2.06-24.44,30-71.13,38-96.89,44.54a247.84,247.84,0,0,0-39.26,13.33c-17.13,7.64-23.75,13.86-23.75,13.86,96.33,109.85,23.18,234-7.55,285.5,0,0,78.39,107.52,23.54,197.83-48.95,80.61-171.16,47.49-209.53-16.16-30.29-50.24-52.51-96.49-59.7-184.45-11.06-134.86-145.76-141.28-208.68-213.62-34.74-39.86-55.54-93.26-63.9-157.55h0c-.44-3.52-.89-7.07-1.25-10.67-.53-4.88-1-9.81-1.37-14.82-.45-6-.81-12.08-1.09-18.26-.25-5.33-.41-10.74-.45-16.23-.08-3.43-.12-6.87-.12-10.34s0-6.83.08-10.26c.08-4,.16-8,.28-12,.12-3,.25-6,.37-9v-.08c.16-3.56.36-7.11.56-10.66a944.08,944.08,0,0,1,12.64-105.5c10.14-58.48,25.65-121.12,46.09-187q12.78-41.37,28.15-84.49c.85-2.3,1.65-4.57,2.46-6.87q27.09-75.18,61.31-154.65s568.47,83.85,553.93,145.69c-9.73,41.44-12.8,82.35-12.12,122.17a812.64,812.64,0,0,0,6,81.51C2604.85,2060.64,2639.26,2172.43,2581.66,2248.81Z" transform="translate(-579 -718.89)"/><g class="cls-2"><path class="cls-3" d="M2580.05,2250.87c-24.44,30-71.13,38-96.89,44.54a247.84,247.84,0,0,0-39.26,13.33l-36.16.54s-26.92-15.81-60.62-22.4-59.82-2.23-59.82-2.23c-28.72.45-53.87,3.7-54.31-25.06l0-2.67-1.13,1.38c-104.36,25.37-136.88,28.32-189.79,15.63-18.53-4.45-38.36,3.92-46.57,21.12-4.78,10-5,21.21,3,30.33,62.93,72.34,197.62,78.76,208.69,213.62,7.19,88,29.4,134.21,59.69,184.45,37.08,61.55,135.79,56.51,186.52-16.72,5.09,31.34,2.75,66.4-17.17,99.2-48.95,80.61-171.16,47.49-209.53-16.16-30.29-50.24-52.51-96.49-59.7-184.45-11.06-134.86-145.76-141.28-208.68-213.62-34.74-39.86-55.54-93.26-63.94-157.55-.44-3.52-.89-7.07-1.25-10.67,0-.16,0-.28,0-.44-.24-2.3-.49-4.61-.69-6.91-.24-2.46-.44-5-.64-7.47-.25-3-.41-6-.61-9s-.36-6.14-.48-9.21c-.25-5.33-.41-10.74-.45-16.23-.08-3.43-.12-6.83-.12-10.3v0c0-3.39,0-6.83.08-10.26.08-4,.16-8,.28-12,.12-3,.25-6,.37-9v-.08c.16-3.56.36-7.11.56-10.66a244.5,244.5,0,0,0,40.23,15.75c113.53,34.49,299.56,27.42,299.56,27.42a5.7,5.7,0,0,1,.53.41l-.53-35a52.45,52.45,0,0,1,41.08-51.78,48.78,48.78,0,0,1,10.42-1.21l242.53-3.6a52.35,52.35,0,0,1,53,51.46l1.53,102.26Z" transform="translate(-579 -718.89)"/></g><g class="cls-2"><path class="cls-3" d="M2053.83,1585.14q-17.7,44-33,86.55c-.81,2.31-1.62,4.57-2.47,6.87q-15.31,43.08-28.15,84.49c-20.43,65.92-35.94,128.56-46.08,187-12,68.74-16.44,131.75-12.6,187.57a244.5,244.5,0,0,1-40.23-15.75,944.08,944.08,0,0,1,12.64-105.5c10.14-58.48,25.65-121.12,46.09-187q12.78-41.37,28.15-84.49c.85-2.3,1.65-4.57,2.46-6.87q27.09-75.18,61.31-154.65S2046.15,1584,2053.83,1585.14Z" transform="translate(-579 -718.89)"/></g><path class="cls-3" d="M2347.73,2869.63h-.22c-54-.08-109.4-29.49-134.75-71.53-28.21-46.78-54.18-96.63-62-191.45-6.49-79.2-60-109.17-116.61-140.9-31.64-17.72-64.35-36.05-88.18-63.43-118.35-136-89.56-429.13,81.09-825.33a16.12,16.12,0,0,1,17.19-9.59c1.28.18,129.54,19.17,261.17,45.33,272,54,293.38,85.5,301.42,97.34,6.17,9.07,6,17.33,4.72,22.66-22.38,95.19-8,189.32,4.62,272.37,15.29,100.31,28.49,186.94-21.68,253.43-24.64,32.65-68.62,43.2-97.72,50.17-3.46.83-6.71,1.61-9.67,2.37-20.23,5.19-34.13,10.94-43,15.45,81.6,109.09,19.15,227.34-12.45,281.06,18.45,29.21,69,123.11,18.29,206.71C2428.3,2850,2392,2869.63,2347.73,2869.63ZM2051.88,1601.22c-161.16,378.31-190.14,655-81.48,779.89,20.14,23.15,49,39.33,79.59,56.46,58.65,32.85,125.13,70.1,133,166.44,7.21,88,30.27,132.38,57.42,177.4,19.5,32.34,64.55,55.85,107.13,55.91h.16c23.07,0,54.67-6.92,74.62-39.79,48.48-79.86-22.11-179-22.83-179.94a16.19,16.19,0,0,1-.8-17.78c29.45-49.35,98.42-164.94,9.28-266.57a16.16,16.16,0,0,1,1.1-22.44c2-1.84,20.61-18.35,70-31,3.12-.79,6.53-1.61,10.17-2.49,24.61-5.9,61.8-14.82,79.46-38.21,42-55.62,29.72-136,15.53-229.1-13-85.35-27.75-182-4.63-282.54-5.38-7.26-41-35.15-275.9-82.1C2195,1623.59,2087.47,1606.67,2051.88,1601.22Z" transform="translate(-579 -718.89)"/><path class="cls-1" d="M2076.17,1778.78s-158.43-48.76-207.88-87.16c-32.85-25.52-55.15-48.65-80.17-97.31-34.74-67.57-77.49-126.38-132.89-117.79-24.18,3.75-31.07,26.51-31.07,26.51s-22.23-2.27-38.79,10.07c-18.46,13.75-19.39,40.55-19.39,40.55s-24.49,9.94-30,43.73c-14.32,87.23,36.74,220.06,146.3,314.3,93.44,80.36,242.49,109.54,242.49,109.54Z" transform="translate(-579 -718.89)"/><g class="cls-2"><path class="cls-3" d="M1625.26,1500.2c2.75-6.21,11.07-20.76,30-23.7a68.41,68.41,0,0,1,19.83-.21,32,32,0,0,0-1.49,3.72s-22.22-2.26-38.78,10.06A41.4,41.4,0,0,0,1625.26,1500.2Z" transform="translate(-579 -718.89)"/></g><g class="cls-2"><path class="cls-3" d="M1924.74,2021.22h0s-149.07-29.16-242.49-109.54c-109.57-94.22-160.62-227.06-146.33-314.3,5.58-33.81,30-43.74,30-43.74s.93-26.78,19.39-40.55c14.94-11.11,34.53-10.34,38.21-10.1-7.68,13.13-8.16,27.63-8.16,27.63s-24.52,9.93-30.05,43.74c-14.34,87.24,36.75,220.08,146.29,314.3,54.06,46.51,126.73,75.88,178.39,92.36A27.1,27.1,0,0,1,1924.74,2021.22Z" transform="translate(-579 -718.89)"/></g><g class="cls-2"><path class="cls-3" d="M1625.26,1500.25a25.73,25.73,0,0,0-1.09,2.78,3.42,3.42,0,0,0-.6,0C1624.09,1502.06,1624.66,1501.13,1625.26,1500.25Z" transform="translate(-579 -718.89)"/></g><path class="cls-3" d="M2074.58,1783.92a200,200,0,0,1-37.38-4.07,310.12,310.12,0,0,1-35.9-9.06,582.06,582.06,0,0,1-69.43-26.07l-17-7.9-16.9-8.39c-11.26-6-22.4-11.88-33.57-19.81-5.86-3.95-10.57-7.75-15.51-11.8s-9.77-8.22-14.55-12.55a255.25,255.25,0,0,1-26.67-28.57,289.84,289.84,0,0,1-21.81-32c-6.53-10.93-12.36-22.49-17.81-32.75-11.3-20.87-23.47-41.23-37.85-58.86a150.16,150.16,0,0,0-23.2-23.56c-8.3-6.65-17.18-11.87-26.31-14.54l-6.89-1.48c-2.31-.34-4.64-.3-6.95-.54-4.54.1-9.87.39-12.79,1.44a20.53,20.53,0,0,0-8.75,5.48,24.41,24.41,0,0,0-3.49,4.47,25.28,25.28,0,0,0-1.41,2.53c-.23.43-.37.84-.57,1.25s-.38,1-.25.59l-17.1,11.39c-.47,0-2.28-.1-3.53-.07s-2.79.11-4.19.24a49,49,0,0,0-8.12,1.43,32,32,0,0,0-12.86,6.38c-3.25,2.66-5.92,6.77-8,11.63a50.2,50.2,0,0,0-2.49,7.84c-.32,1.36-.59,2.76-.8,4.13s-.38,3.06-.41,3.53l-10.07,14.42c.51-.22-.34.18-.64.35-.46.28-.92.52-1.4.86a25.82,25.82,0,0,0-2.9,2.1,34.73,34.73,0,0,0-5.31,5.26,43.19,43.19,0,0,0-7.57,13.52,58,58,0,0,0-2.07,8c-.58,2.75-.77,6.31-1.19,9.41-1,6.38-.94,13-1.1,19.54-.16,26.37,4.94,53.25,13,79.17,16.21,52,44.83,100.35,80.13,142.36a421.89,421.89,0,0,0,58.75,57.47c21.19,16.87,44.74,31.26,69.35,43.77,6.24,3,12.35,6.22,18.68,9s12.63,5.73,19.05,8.36c12.83,5.35,26.07,9.67,39.33,13.88s26.34,9,39.39,14c13,5.32,25.81,11.41,38.17,20.23l.2.14a5.81,5.81,0,0,1-2.27,10.43c-15.54,3-30.28,1.89-44.72-.54a247.88,247.88,0,0,1-42.09-11.74c-13.66-5.13-27-11.06-40.49-16.61-6.74-2.8-13.38-5.89-20.07-8.83s-13.19-6.39-19.78-9.57c-26.15-13.3-51.5-28.72-74.89-47.33a454.43,454.43,0,0,1-63.26-61.83c-37.84-45.08-68.54-96.71-86.33-153.64-8.84-28.41-14.63-58.17-14.5-88.85.16-7.68.15-15.34,1.3-23.08.53-4,.7-7.54,1.54-11.77a90.94,90.94,0,0,1,3.33-12.69A75.76,75.76,0,0,1,1537,1556.5a66.6,66.6,0,0,1,9.85-9.72,58.65,58.65,0,0,1,5.75-4.16c1-.66,2.09-1.28,3.17-1.9a39.35,39.35,0,0,1,4.14-2l-10.07,14.41a65.69,65.69,0,0,1,.76-7.3c.34-2.22.76-4.39,1.27-6.56a81.93,81.93,0,0,1,4.12-12.91c3.57-8.45,8.83-17,16.76-23.74a64,64,0,0,1,25.68-13.13,81,81,0,0,1,13.32-2.36c2.22-.21,4.44-.33,6.69-.38a70.63,70.63,0,0,1,7.36.24l-17.1,11.39c.59-1.87.9-2.54,1.35-3.69.44-1,.86-2,1.33-2.91a57.89,57.89,0,0,1,3-5.47,56.63,56.63,0,0,1,7.75-9.92,53,53,0,0,1,21.94-13.7,44.07,44.07,0,0,1,6.24-1.62,36.3,36.3,0,0,1,5.87-.8c3.74-.22,7.46-.86,11.23-.6s7.56.36,11.27.91c3.67.75,7.36,1.52,11,2.38,14.37,4.21,26.8,11.79,37.48,20.33a182,182,0,0,1,28.1,28.4c16.46,20.23,29.35,42,41.27,64,6,11.29,11.15,21.52,17.13,31.55a258.91,258.91,0,0,0,19.33,28.42,222.34,222.34,0,0,0,23.22,24.86c4.27,3.85,8.6,7.66,13.16,11.34a170.4,170.4,0,0,0,13.6,10.35c18.07,12.21,40.36,22.1,62.37,31,22.19,8.92,44.65,17.62,67,26.95,11.2,4.56,22.31,9.43,33.22,15a256.57,256.57,0,0,1,32.21,18.57l.06,0a5.63,5.63,0,0,1-3.23,10.25Z" transform="translate(-579 -718.89)"/><path class="cls-9" d="M2430.45,2265.07c.11-.68.2-1.37.26-2.05a1.72,1.72,0,0,1,0,.31C2430.63,2263.9,2430.56,2264.5,2430.45,2265.07Z" transform="translate(-579 -718.89)"/><path class="cls-1" d="M2538.09,2240.72c-24.58,1.32-52.13,2.33-81.71,2.74,17.62,1,33.87,1.76,48.36,2.28A92.27,92.27,0,0,0,2538.09,2240.72Z" transform="translate(-579 -718.89)"/><circle class="cls-1" cx="2597.64" cy="2155.51" r="45.9" transform="translate(-541.25 3636.82) rotate(-80.36)"/><g class="cls-10"><path class="cls-3" d="M2643.48,2157.55a45.9,45.9,0,1,1-91.7-4.1,45.44,45.44,0,0,1,5.28-19.4,45.9,45.9,0,0,0,82.89,3.7A45.23,45.23,0,0,1,2643.48,2157.55Z" transform="translate(-579 -718.89)"/></g><path class="cls-3" d="M2597.68,2216.4c-.92,0-1.83,0-2.76-.06a60.9,60.9,0,1,1,63.56-58.11h0A61,61,0,0,1,2597.68,2216.4Zm0-91.79a30.9,30.9,0,1,0,30.88,32.28h0a30.94,30.94,0,0,0-29.49-32.25C2598.56,2124.62,2598.09,2124.61,2597.63,2124.61Zm45.86,32.95h0Z" transform="translate(-579 -718.89)"/><path class="cls-1" d="M2544.76,2267.11l-242.6,3.58a52.4,52.4,0,0,1-53-51.47l-1.89-129.1a52.41,52.41,0,0,1,41-51.79,50.26,50.26,0,0,1,10.42-1.22l242.56-3.58a52.35,52.35,0,0,1,53,51.47l1.53,102.25.4,26.85A52.39,52.39,0,0,1,2544.76,2267.11Z" transform="translate(-579 -718.89)"/><g class="cls-2"><path class="cls-3" d="M2544.76,2267.11l-242.6,3.58a52.4,52.4,0,0,1-53-51.47l-1.89-129.1a52.41,52.41,0,0,1,41-51.79c13.91,8.94,22.74,14.67,22.74,14.67,13.34,103.45,43.61,154.69,172.33,154.89,55.56.08,90.5-8.91,112.45-20.64l.4,26.85A52.39,52.39,0,0,1,2544.76,2267.11Z" transform="translate(-579 -718.89)"/></g><path class="cls-3" d="M2301.39,2283.21a64.82,64.82,0,0,1-64.72-63.79l-1.91-129.12a64.89,64.89,0,0,1,63.78-65.69l242.58-3.59a64.8,64.8,0,0,1,65.7,63.78l1.9,129.12a64.89,64.89,0,0,1-63.78,65.7l-242.58,3.58ZM2542.09,2046h-.6l-242.58,3.59a39.87,39.87,0,0,0-39.15,40.32l1.9,129.12a39.44,39.44,0,0,0,12.1,27.88A39,39,0,0,0,2302,2258.2h0l242.58-3.58a39.9,39.9,0,0,0,39.16-40.33l-1.91-129.12A39.79,39.79,0,0,0,2542.09,2046Z" transform="translate(-579 -718.89)"/><path class="cls-1" d="M2554.49,2266a46.41,46.41,0,0,1-9.73,1.1l-242.6,3.58a52.35,52.35,0,0,1-48-30,51.51,51.51,0,0,1-5-21.47l-.87-57.35-.28-18.93-.78-52.82a52.4,52.4,0,0,1,51.47-53l52.42-.76a52.38,52.38,0,0,0-41.82,51.91l1,69.73.88,59.4a52.42,52.42,0,0,0,53,51.47Z" transform="translate(-579 -718.89)"/><g class="cls-2"><path class="cls-3" d="M2554.49,2266a46.41,46.41,0,0,1-9.73,1.1l-242.6,3.58a52.34,52.34,0,0,1-53-51.47l-1.15-76.28c6.3,13.39,17.5,29.77,35.07,31.25,9.64.83,19-6.23,27.23-16.2l.88,59.4a52.42,52.42,0,0,0,53,51.47Z" transform="translate(-579 -718.89)"/></g><path class="cls-3" d="M2301.34,2283.21a64.87,64.87,0,0,1-64.66-63.79l-1.91-129.12a64.89,64.89,0,0,1,63.77-65.7l52.41-.77a12.76,12.76,0,0,1,12.61,11.15,12.52,12.52,0,0,1-9.92,13.6,39.78,39.78,0,0,0-31.81,39.5l1.9,129.12a39.88,39.88,0,0,0,40.3,39.16l190.28-2.83a12.5,12.5,0,0,1,2.82,24.72,61.36,61.36,0,0,1-12.24,1.36l-242.54,3.59Zm7.89-233.76-10.31.15a39.92,39.92,0,0,0-39.16,40.32l1.91,129.13h0a39.88,39.88,0,0,0,40.3,39.14l11.79-.17a64.15,64.15,0,0,1-15-40.47l-1.9-129.11A64.41,64.41,0,0,1,2309.23,2049.45Z" transform="translate(-579 -718.89)"/><path class="cls-11" d="M2406,2152.46c0,4.78-6.32,43.38-6.32,43.38l-27.2.25c-18.74.17-34.09-19.09-34.31-43s14.79-43.45,33.52-43.62l27.21-.24S2405.88,2144.68,2406,2152.46Z" transform="translate(-579 -718.89)"/><g class="cls-10"><path class="cls-4" d="M2406,2152.46c0,4.78-6.32,43.38-6.32,43.38l-27.2.25c-18.74.17-34.09-19.09-34.31-43s14.79-43.45,33.52-43.62l27.21-.24S2405.88,2144.68,2406,2152.46Z" transform="translate(-579 -718.89)"/></g><path class="cls-3" d="M2372.17,2203.59c-11.29,0-21.83-5.42-29.7-15.3-7.52-9.42-11.73-21.91-11.85-35.15-.25-28,18.12-51,41-51.19l19-.17a17.42,17.42,0,0,1,17.21,14.12c3.72,19.63,5.63,31.91,5.67,36.5h0c0,1.11,0,4.52-5.09,36.43a17.3,17.3,0,0,1-17,14.59l-18.9.17Zm18.56-86.81h0l-19,.17c-14.56.13-26.27,16.31-26.09,36.06.09,9.9,3.13,19.11,8.57,25.93,5,6.28,11.65,9.84,18.17,9.65l18.89-.17a2.34,2.34,0,0,0,2.3-2c3.57-22.21,4.87-32.16,4.9-33.94,0-3.52-2.06-16.15-5.41-33.82A2.35,2.35,0,0,0,2390.73,2116.78Z" transform="translate(-579 -718.89)"/><ellipse class="cls-4" cx="2399.24" cy="2152.52" rx="33.92" ry="43.32" transform="matrix(1, -0.01, 0.01, 1, -598.33, -697.15)"/><g class="cls-12"><path class="cls-1" d="M2433.16,2152.21a52.35,52.35,0,0,1-.69,9.12c-3.24-19.91-17.1-34.83-33.62-34.7-16.29.17-29.73,14.92-32.83,34.44a55.74,55.74,0,0,1-.69-8.24c-.23-23.94,14.78-43.46,33.52-43.63S2432.93,2128.3,2433.16,2152.21Z" transform="translate(-579 -718.89)"/></g><g class="cls-10"><path class="cls-3" d="M2433.16,2152.21c.19,23.94-14.78,43.46-33.52,43.62s-34.11-19.06-34.31-43a54.48,54.48,0,0,1,1.73-14.19c4.52,17.39,17.43,29.92,32.58,29.79,14.84-.13,27.34-12.43,31.78-29.43A54.42,54.42,0,0,1,2433.16,2152.21Z" transform="translate(-579 -718.89)"/></g><path class="cls-3" d="M2399.39,2203.34c-22.7,0-41.31-22.55-41.57-50.44-.12-13.24,3.86-25.8,11.21-35.36,7.77-10.11,18.33-15.73,29.75-15.83s22.08,5.32,30,15.29c7.52,9.43,11.72,21.91,11.84,35.15h0c.26,28-18.12,51-41,51.19Zm-.3-86.63h-.17c-6.71.06-13.1,3.6-18,10-5.32,6.92-8.2,16.18-8.11,26.08.18,19.67,12.08,35.58,26.57,35.58h.17c14.57-.13,26.27-16.31,26.09-36.06-.09-9.9-3.13-19.11-8.57-25.92C2412.11,2120.12,2405.73,2116.71,2399.09,2116.71Z" transform="translate(-579 -718.89)"/><path class="cls-3" d="M2469.34,2279.79h-.11a12.49,12.49,0,0,1-12.39-12.61l.57-65.33a57.52,57.52,0,0,1,26.24-47.82,32.46,32.46,0,0,0,14.86-27.73l-1-92.09a12.5,12.5,0,0,1,12.36-12.64h.14a12.5,12.5,0,0,1,12.5,12.36l1,92.08a57.36,57.36,0,0,1-26.24,49,32.58,32.58,0,0,0-14.86,27.08l-.57,65.33A12.51,12.51,0,0,1,2469.34,2279.79Z" transform="translate(-579 -718.89)"/><path class="cls-1" d="M1901.88,2078.53s-32.39,7.95-36.83,49.48c-3.77,35.34,26.06,56.43,26.06,56.43s148.8,84,356.85,33.48c0,0,48.58-56.59-.7-93.25C2247.26,2124.67,2000.44,2134.05,1901.88,2078.53Z" transform="translate(-579 -718.89)"/><g class="cls-2"><path class="cls-3" d="M2248,2217.92c-208,50.59-356.85-33.49-356.85-33.49s-29.82-21.07-26-56.43a68.86,68.86,0,0,1,4.31-18.12,71.32,71.32,0,0,0,21.72,27.87s148.8,84,356.85,33.45a108,108,0,0,0,16.2-27.42C2282,2178.21,2248,2217.92,2248,2217.92Z" transform="translate(-579 -718.89)"/></g><path class="cls-3" d="M2113.39,2249.25c-136,0-224.85-49-229.66-51.75-.44-.25-.87-.52-1.28-.81-1.51-1.07-37-26.69-32.31-70.27,5.49-51.41,46.43-62,48.17-62.46a14.94,14.94,0,0,1,10.93,1.5c93.72,52.79,335,44.33,337.45,44.23a15.17,15.17,0,0,1,9.53,2.95c16.38,12.19,25.72,27.54,27.73,45.63,4,35.67-23.44,68.06-24.61,69.41a15,15,0,0,1-7.84,4.81A583.83,583.83,0,0,1,2113.39,2249.25Zm-214.14-77.46c11.5,6.11,150.82,76.92,340.12,32.75,6.44-8.92,16.6-26.92,14.75-43-.93-8.2-4.86-15.32-11.95-21.65-37.79,1.06-244.45,4.45-341.28-44.85-6.86,3.56-18.59,12.76-20.92,34.6C1877.43,2153.37,1895.58,2168.91,1899.25,2171.79Z" transform="translate(-579 -718.89)"/><path class="cls-3" d="M2284,2283.82c11.23-8.54,24.31-11.21,37.12-11.57a167,167,0,0,1,38.83,3.09,141.68,141.68,0,0,1,37.66,12.59c12.2,5.58,23.14,13.68,33.16,22.53a16.13,16.13,0,0,1-20.23,25.08l-1.1-.82c-8.7-6.46-17.17-13.14-26.77-18.27a64.25,64.25,0,0,0-7.18-3.85l-7.35-3.67c-5.12-2-10.13-4.31-15.44-6a193.58,193.58,0,0,0-32.83-8.26c-11.37-1.66-22.66-3.54-35.35-8.21l-.13-.05a1.5,1.5,0,0,1-.89-1.92A1.54,1.54,0,0,1,2284,2283.82Z" transform="translate(-579 -718.89)"/><g class="cls-2"><path class="cls-3" d="M2627.34,1837.05c-3.83,2.06-7.71,4-11.63,6-28,8.12-168.58,44.15-356.47,10.26-186.39-41.44-302.1-129-324.76-147.34q-7.45-8.71-14.54-17.73c5.45-16.39,14.46-26.09,14.46-26.09s1.37,1.21,4.12,3.44c22.65,18.29,138.37,105.89,324.76,147.33,187.89,33.89,328.48-2.14,356.47-10.26,3.35-1,5.09-1.53,5.09-1.53S2630.53,1816.65,2627.34,1837.05Z" transform="translate(-579 -718.89)"/></g><path class="cls-4" d="M2919.44,1410.13c-35.57,176.73-150.23,317.41-299.7,392.56-28,8.1-168.57,44.13-356.46,10.23-186.4-41.43-302.11-129-324.78-147.34-108.76-127.12-160.07-301.2-124.5-477.93,61.44-305.27,358.7-502.89,664-441.46S2980.87,1104.87,2919.44,1410.13Z" transform="translate(-579 -718.89)"/><g class="cls-13"><path class="cls-1" d="M1834,1222.65c61.44-305.26,358.71-502.89,664-441.46,159,32,288.85,128.07,368.05,255.9-76.23-145.17-214.8-256-388.05-290.9-305.26-61.43-602.53,136.2-664,441.46a561.7,561.7,0,0,0,73.21,407.63A561.33,561.33,0,0,1,1834,1222.65Z" transform="translate(-579 -718.89)"/></g><path class="cls-4" d="M2919.44,1410.15c-35.58,176.69-150.23,317.38-299.69,392.53-28,8.11-168.6,44.15-356.45,10.25-186.43-41.44-302.13-129-324.82-147.35a565.8,565.8,0,0,1-91.73-148.72,890.76,890.76,0,0,0,184.63,62.78c187.89,33.89,328.47-2.14,356.45-10.26,149.5-75.14,264.14-215.83,299.7-392.56a561.72,561.72,0,0,0-54.34-374.94C2846.63,916.2,2969.69,1160.48,2919.44,1410.15Z" transform="translate(-579 -718.89)"/><path class="cls-3" d="M1723.05,1954.22a12.5,12.5,0,0,1-3.46-24.52c159.07-45.82,161.31-215.06,161.32-222.24a12.5,12.5,0,0,1,12.5-12.47h0a12.49,12.49,0,0,1,12.48,12.49c0,1.94-2.05,195.15-179.4,246.25A12.57,12.57,0,0,1,1723.05,1954.22Z" transform="translate(-579 -718.89)"/><g class="cls-2"><path class="cls-3" d="M2589.74,1932.73c-10.18,7.71-23.14,14.86-39.54,21-120,44.67-310.42,2.78-310.42,2.78s-127.39-23.3-225.05-79.32c-22.17-12.72-42.81-27.14-60.1-43.34-1.57-1.49-3.15-3-4.6-4.44-46.29-46.28-39.75-86.43-29.73-108.56a73.23,73.23,0,0,1,11.39-18.26s1.33,1.21,4.08,3.43a528.05,528.05,0,0,0,44.87,32c9.33,6,19.91,12.6,31.75,19.43a0,0,0,0,1,0,0c16.88,9.73,36.23,20.11,58,30.49a890.83,890.83,0,0,0,190.14,65.35c147.3,26.58,265.52,10.18,323.19-2.1A812.64,812.64,0,0,0,2589.74,1932.73Z" transform="translate(-579 -718.89)"/></g><path class="cls-4" d="M2552.91,1913.28c-120,44.68-310.39,2.82-310.39,2.82s-191.8-35-285.18-122.68c-77.37-72.61-22.94-131.24-22.94-131.24s1.37,1.21,4.1,3.4c22.67,18.3,138.38,105.91,324.78,147.34,187.89,33.9,328.48-2.13,356.46-10.23,3.37-1,5.09-1.55,5.09-1.55S2652.34,1876.26,2552.91,1913.28Z" transform="translate(-579 -718.89)"/><g class="cls-2"><path class="cls-3" d="M2627.34,1837.05c-3.83,2.06-7.71,4-11.63,6-28,8.12-168.58,44.15-356.47,10.26-186.39-41.44-302.1-129-324.76-147.34q-7.45-8.71-14.54-17.73c5.45-16.39,14.46-26.09,14.46-26.09s1.37,1.21,4.12,3.44c22.65,18.29,138.37,105.89,324.76,147.33,187.89,33.89,328.48-2.14,356.47-10.26,3.35-1,5.09-1.53,5.09-1.53S2630.53,1816.65,2627.34,1837.05Z" transform="translate(-579 -718.89)"/></g><path class="cls-3" d="M2412.56,1950.15c-87.54,0-166-16.63-173.23-18.21-11.41-2.11-198.22-37.76-293-126.74-88.07-82.65-24.38-153.31-23.72-154a16.15,16.15,0,0,1,22.54-1.1c.14.11,1.31,1.13,3.5,2.89,21,16.94,134.7,103.32,317.86,144.1,184.63,33.24,322.92-2.42,348.78-9.91,2.74-.79,4.21-1.27,4.41-1.34a16.18,16.18,0,0,1,20.34,9.75c.33.9,31.73,90.69-81.45,132.84h0C2514.52,1944.82,2462.08,1950.15,2412.56,1950.15Zm-474.5-264.44c-8.74,18-15.3,53.1,30.34,95.93,88.76,83.3,275.15,118.23,277,118.57l.56.11c1.86.41,187.22,40.3,301.29-2.18,58.61-21.82,66.19-56.72,65.07-76.72-45.18,11.49-179.58,38.5-351.93,7.4l-.64-.13C2088.81,1790.69,1975.32,1713.82,1938.06,1685.71Zm614.85,227.57h0Z" transform="translate(-579 -718.89)"/><path class="cls-3" d="M2552.91,1929.44a16.16,16.16,0,0,1-5.64-31.3c83.42-31.06,63.29-89,62.39-91.45a16.16,16.16,0,0,1,30.34-11.11c.33.9,31.73,90.69-81.45,132.84A15.94,15.94,0,0,1,2552.91,1929.44Z" transform="translate(-579 -718.89)"/><path class="cls-14" d="M2795.76,1340.12c-19.1,13-39.64,19-52.23-.35-3.45-5.28-6.26-11.65-9.82-19.33a251.83,251.83,0,0,0-26.9-46.19c-29.54-40.33-57.3-53.53-70.76-64.85-6.63-5.59-9.77-10.7-8-18.39,9.16-39,41.93-62.15,105.78-60.15,33.33,1,64.91,15.3,85.53,34.47,1.87,1.71,3.65,3.5,5.32,5.3.51.56,1,1.1,1.51,1.68s1,1.11,1.46,1.68l1.41,1.7a2.76,2.76,0,0,0,.31.37c.67.87,1.33,1.74,2,2.61.12.15.24.32.34.47.41.58.83,1.16,1.22,1.74a62,62,0,0,1,8.67,18C2861.53,1269.17,2828.78,1317.62,2795.76,1340.12Z" transform="translate(-579 -718.89)"/><g class="cls-2"><path class="cls-1" d="M2824.39,1170.33c-87.38-53.73-161.83,19.39-183.34,44.07-6.63-5.59-9.77-10.7-8-18.39,9.16-39,41.93-62.15,105.78-60.15C2772.19,1136.9,2803.77,1151.16,2824.39,1170.33Z" transform="translate(-579 -718.89)"/></g><g class="cls-2"><path class="cls-3" d="M2795.76,1340.12c-19.1,13-39.64,19-52.23-.35-3.45-5.28-6.26-11.65-9.82-19.33a46.68,46.68,0,0,0,34-7.57c34.69-23.64,69.1-72.25,57-142.24.51.56,1,1.1,1.51,1.68s1,1.11,1.46,1.68l1.41,1.7a2.76,2.76,0,0,0,.31.37c.67.87,1.33,1.74,2,2.61.12.15.24.32.34.47.41.58.83,1.16,1.22,1.74a62,62,0,0,1,8.67,18C2861.53,1269.17,2828.78,1317.62,2795.76,1340.12Z" transform="translate(-579 -718.89)"/></g><path class="cls-3" d="M2761.49,1368.4a44.15,44.15,0,0,1-6.59-.48,16.16,16.16,0,0,1,4.86-32c7.29,1.14,28.59-5.52,47.1-26.49,13.94-15.8,35-50.6,19.2-106.18-8.49-30-40.33-53.68-79.22-59-44.26-6-84.82,13.43-108.49,52.16a16.16,16.16,0,0,1-27.57-16.86c30.58-50,83.08-75.15,140.45-67.31,51.41,7,94,40.09,105.92,82.22,19.94,70.34-7.77,115.63-26.06,136.36C2810.9,1353.74,2783.29,1368.4,2761.49,1368.4Z" transform="translate(-579 -718.89)"/><path class="cls-14" d="M2161.42,1104.78c-5.73,31.75-35.91,9.15-98.7,49.38-33,21.16-35.67,30-48.68,39.38a41.2,41.2,0,0,1-58-10c-22.69-32.91-35.79-89.9,8.13-148.29,21.06-28,76.76-41.54,125-24.62C2149.44,1031.81,2168.52,1065.41,2161.42,1104.78Z" transform="translate(-579 -718.89)"/><g class="cls-2"><path class="cls-15" d="M2028.59,1180.46c-5.14,5-8.86,9-14.55,13.08a41.19,41.19,0,0,1-58-10c-22.7-32.89-35.8-89.89,8.13-148.28,5.91-7.87,14.58-14.59,25-19.83-36.6,58-22.91,113.32-.25,146.17A43.88,43.88,0,0,0,2028.59,1180.46Z" transform="translate(-579 -718.89)"/></g><g class="cls-2"><path class="cls-1" d="M1990.31,1016.69c100.87-18.64,144,76.4,155.14,107.17,8.2-2.82,13-6.46,14.06-14.28,5.49-39.63-16.71-73.08-77-94.23C2051.06,1004.31,2016.45,1006.24,1990.31,1016.69Z" transform="translate(-579 -718.89)"/></g><path class="cls-3" d="M1987.61,1224.59a16.1,16.1,0,0,1-3.5-.38c-22.3-4.93-46-30.43-57.72-62-9.59-25.93-19.12-78.16,24.83-136.6,26.32-35,77.94-50.46,128.43-38.52,56.35,13.34,96.26,55.73,106.76,113.4a16.16,16.16,0,0,1-31.79,5.79c-8.13-44.66-38.94-77.46-82.41-87.74-38.2-9-76.44,1.61-95.16,26.5-34.74,46.17-27.66,86.21-20.36,106,9.71,26.24,27.19,40.1,34.39,41.69a16.16,16.16,0,0,1-3.47,31.93Z" transform="translate(-579 -718.89)"/><path class="cls-1" d="M2767.47,1626.15c-16.1,45.53-40.27,95.22-99.84,133.59-27.8,17.91-59.7,30.3-108.82,41.17-45.65,10.07-156.12,16.93-281.81-6.66-125.74-23.29-226.29-69.49-265.25-95.34-41.91-27.83-67.19-50.89-86.7-77.62-41.74-57.26-46.36-112.31-45-160.58,2.05-70.85,63.61-234.27,134.79-295.39,27.28-23.4,54.65-44.87,86-62.47,66.26-37.19,150.23-57,288.16-41,8,.93,16,2.14,23.86,3.62s15.79,3.21,23.58,5.22c135.81,35.16,207.06,84.54,255.52,143.92,22.18,27.19,39.57,56.47,56.21,87.43C2792.55,1384.71,2791.07,1559.32,2767.47,1626.15Z" transform="translate(-579 -718.89)"/><g class="cls-2"><path class="cls-3" d="M2767.47,1626.15c-16.1,45.53-40.27,95.22-99.84,133.59-27.8,17.91-59.7,30.3-108.82,41.17-45.65,10.07-156.12,16.93-281.81-6.66-125.74-23.29-226.29-69.49-265.25-95.34-41.91-27.83-67.19-50.89-86.7-77.62-41.74-57.26-46.36-112.31-45-160.58.55-18.74,5.25-43.92,13.17-72,0,.56,0,1.09,0,1.63-1.39,48.27,3.23,103.33,45,160.58,19.5,26.74,44.79,49.79,86.7,77.61,39,25.87,139.5,72.07,265.25,95.36,125.69,23.59,236.15,16.73,281.81,6.63,49.12-10.84,81-23.23,108.82-41.15,59.57-38.37,83.74-88.05,99.84-133.58.18-.51.34-1,.53-1.54C2778.4,1583.29,2773.71,1608.48,2767.47,1626.15Z" transform="translate(-579 -718.89)"/></g><path class="cls-3" d="M2446.41,1826.35A940.83,940.83,0,0,1,2274,1810.13c-136-25.16-236.85-75-271.21-97.76-42.59-28.28-69.75-52.68-90.82-81.57-44.93-61.62-49.51-120.8-48.07-170.57,2.19-75.57,66-243.25,140.41-307.16,82.25-70.61,173.72-131.95,386.54-107.27,8.13.94,16.53,2.21,25,3.79h0c8.41,1.57,16.71,3.4,24.65,5.46,207.43,53.68,270.63,143.85,321.91,239.36,46.41,86.44,45.48,265.83,20.29,337.12-16.59,46.94-42.18,100.49-106.31,141.78-30.06,19.36-64.18,32.33-114.11,43.36C2541.14,1821.35,2500.2,1826.35,2446.41,1826.35Zm-146.5-753.88c-139,0-207.68,47.74-274.52,105.12-67.27,57.74-127.18,215.26-129.16,283.58-1.35,46.53,2.79,97,41.88,150.6,18.67,25.61,43.37,47.64,82.58,73.68,32.46,21.54,128.41,68.7,259.26,92.92,130.84,24.57,237.33,15.16,275.36,6.75,46-10.15,76.94-21.81,103.59-39,55.79-35.93,77.83-81.5,93.33-125.38,22.77-64.45,23.65-233-18.29-311.08-49.57-92.34-106.48-172.88-301.54-223.36-7.22-1.87-14.78-3.55-22.48-5h0c-7.7-1.44-15.36-2.6-22.76-3.46A759.17,759.17,0,0,0,2299.91,1072.47Z" transform="translate(-579 -718.89)"/><path class="cls-14" d="M2007.82,1524.53s-60.14-24.39-26.17-95.68,172.42-97.32,208.6-84.79,43.93,43.27,43.78,63.22-11,111.11-69.71,128.66S2039.32,1538.43,2007.82,1524.53Z" transform="translate(-579 -718.89)"/><path class="cls-14" d="M2469.57,1619.82s-83.25-26.81-49.84-122.47,57.25-97.95,107.18-86.47,118.86,71.91,138.88,111,12.68,101.11-4,121.81c-13.71,17-49.73,22.23-98.76,10S2487.32,1628.62,2469.57,1619.82Z" transform="translate(-579 -718.89)"/><path class="cls-1" d="M2301.54,1587.45c4.61,29.67,47,63.4,71,6.39" transform="translate(-579 -718.89)"/><path class="cls-1" d="M2302.31,1583.33c-5.29,29.82-61.93,42.22-59.12-17.27" transform="translate(-579 -718.89)"/><path class="cls-3" d="M2240.41,1567.42c1.19,8,2.94,15.82,6.21,21.58s7.28,8.78,12.12,9.45,11.35-.87,17.13-4.16a39.47,39.47,0,0,0,13.91-13.26l17.7-29.74,5.49,34.07c.93,5.78,4.1,12.17,8.22,17.34s9.54,9,14.43,10.22,9.73.12,15.21-4.09,10.16-10.77,14.68-17.71l.16-.26a6.64,6.64,0,0,1,12,5.36c-2.45,9-6.11,18.24-13.31,26.42a39.36,39.36,0,0,1-13.87,10.29,35,35,0,0,1-18.53,2.61c-12.52-1.82-22.38-8.72-29.45-16.83a59,59,0,0,1-14.23-29.52l23.18,4.33a59.21,59.21,0,0,1-23.93,22.37c-9.51,5-21.15,8-33.54,5.25a35.1,35.1,0,0,1-16.56-9,40.51,40.51,0,0,1-9.61-14.58,55.69,55.69,0,0,1-3.67-15.14,85.53,85.53,0,0,1-.33-14.53,8.32,8.32,0,0,1,16.55-.9Z" transform="translate(-579 -718.89)"/><polygon class="cls-3" points="1733.01 820.34 1732.63 877.5 1708 873.2 1725.53 819.34 1733.01 820.34"/><path class="cls-3" d="M2369.25,1538.63c-3.41,19.26-32.28,30.27-64.5,24.58s-55.59-25.92-52.18-45.19,29.28-13.3,61.5-7.61S2372.65,1519.36,2369.25,1538.63Z" transform="translate(-579 -718.89)"/><g class="cls-2"><path class="cls-1" d="M2335.23,1528.93c-.89,5-11.26,7.43-23.16,5.33s-20.82-7.89-19.93-12.94,10.48-3,22.37-.89S2336.12,1523.88,2335.23,1528.93Z" transform="translate(-579 -718.89)"/></g><path class="cls-3" d="M2421.66,1843.28a908.72,908.72,0,0,1-161.25-14.46l-.64-.13c-190.36-42.32-309.48-132.82-331.42-150.54a16,16,0,0,1-2.13-2.07c-116.79-136.5-163.47-315.69-128.06-491.62,63.1-313.49,369.48-517.2,683-454.1,151.86,30.56,282.72,118.43,368.5,247.42s116.18,283.67,85.61,435.54c-35.4,175.93-147.77,323.11-308.27,403.8a16.33,16.33,0,0,1-2.76,1.09C2605.46,1823.65,2530.06,1843.28,2421.66,1843.28Zm-155.19-46.2c181.5,32.67,318.19-1.22,347.36-9.5,150.86-76.35,256.43-215,289.77-380.64h0c28.86-143.4.15-289.46-80.85-411.27s-204.57-204.78-348-233.64-289.48-.15-411.29,80.83-204.79,204.57-233.65,348c-33.34,165.64,10.38,334.33,120,463.1C1973.49,1672.85,2086.43,1757,2266.47,1797.08Zm353.27,5.61h0Z" transform="translate(-579 -718.89)"/><g class="cls-7"><path class="cls-1" d="M2352.63,814.14c-69.07-17.8-160.5,32.91-181.23,70.12-21.47,38.54-20.42,65.57,19.84,76.81,56.23,15.71,93.33-8.71,116.74-43.42C2324.53,893.11,2437.86,836.12,2352.63,814.14Z" transform="translate(-579 -718.89)"/></g><path class="cls-3" d="M2121.28,2518a12.5,12.5,0,0,1-8.64-21.54c6.64-6.35,163.84-155.57,280.16-151.46,30.35,1,55.54,12.31,74.85,33.49a12.5,12.5,0,0,1-18.47,16.85c-14.81-16.25-33.53-24.54-57.22-25.36-105.52-3.57-260.5,143.07-262.05,144.55A12.48,12.48,0,0,1,2121.28,2518Z" transform="translate(-579 -718.89)"/><path class="cls-3" d="M2546.36,1552.58a140.13,140.13,0,0,0-17.91-13.71c-6.11-3.73-12.17-6.1-18-6.82-.73-.1-1.46-.21-2.19-.36s-1.48.06-2.21.07c-1.47.16-3-.29-4.47.23-1.51.28-3,.52-4.62.69-1.55.55-3.12,1.1-4.76,1.54-.81.25-1.65.4-2.47.74l-2.42,1.2-5.08,2.21c-3.39,1.8-6.71,3.93-10.56,5.61l-1.35.59a8.06,8.06,0,0,1-9.83-12,101.72,101.72,0,0,1,9.19-11.22l5.84-4.79,3-2.3c1.07-.72,2.29-1.29,3.45-1.93,2.33-1.27,4.73-2.44,7.16-3.58,2.64-.79,5.33-1.52,8-2.2s5.58-.73,8.41-.93c1.42,0,2.85-.14,4.27-.09l4.23.58A55.22,55.22,0,0,1,2543,1520a63.93,63.93,0,0,1,10,11.19,59.32,59.32,0,0,1,7.11,13.13,8.09,8.09,0,0,1-12.85,9Z" transform="translate(-579 -718.89)"/><path class="cls-3" d="M2085.78,1427a58.71,58.71,0,0,1,12.82-7.65,63.27,63.27,0,0,1,14.28-4.52,55.19,55.19,0,0,1,31.92,2.81l3.93,1.67c1.25.68,2.42,1.5,3.62,2.26,2.33,1.62,4.9,3,6.76,5.11s3.91,4,5.78,6c1.5,2.22,3,4.46,4.32,6.74.66,1.14,1.42,2.25,2,3.41l1.43,3.54,2.57,7.1a101,101,0,0,1,2.15,14.34,8.07,8.07,0,0,1-14.59,5.31l-.86-1.2c-2.45-3.42-4.22-7-6.2-10.22l-3.24-4.51-1.47-2.27c-.52-.71-1.17-1.26-1.74-1.9-1.19-1.21-2.25-2.49-3.31-3.75-1.27-1-2.46-1.94-3.61-3-1-1.22-2.54-1.59-3.72-2.48-.63-.38-1.22-.85-1.87-1.19s-1.38-.52-2.06-.82c-5.39-2.36-11.81-3.42-19-3.35a141.63,141.63,0,0,0-22.4,2.63l-1.08.19a8.08,8.08,0,0,1-6.44-14.29Z" transform="translate(-579 -718.89)"/></svg>